<?xml version="1.0" encoding="UTF-8" standalone="no"?>
<!-- Created with Inkscape (http://www.inkscape.org/) -->

<svg
   width="49.635986mm"
   height="58.012756mm"
   viewBox="0 0 49.635986 58.012756"
   version="1.1"
   id="svg5"
   inkscape:version="1.2.1 (9c6d41e410, 2022-07-14)"
   sodipodi:docname="RPS Icons.svg"
   xmlns:inkscape="http://www.inkscape.org/namespaces/inkscape"
   xmlns:sodipodi="http://sodipodi.sourceforge.net/DTD/sodipodi-0.dtd"
   xmlns:xlink="http://www.w3.org/1999/xlink"
   xmlns="http://www.w3.org/2000/svg"
   xmlns:svg="http://www.w3.org/2000/svg">
  <sodipodi:namedview
     id="namedview7"
     pagecolor="#ffffff"
     bordercolor="#000000"
     borderopacity="0.25"
     inkscape:showpageshadow="2"
     inkscape:pageopacity="0.0"
     inkscape:pagecheckerboard="0"
     inkscape:deskcolor="#d1d1d1"
     inkscape:document-units="mm"
     showgrid="false"
     inkscape:zoom="0.93806818"
     inkscape:cx="393.3616"
     inkscape:cy="528.74621"
     inkscape:window-width="2560"
     inkscape:window-height="1377"
     inkscape:window-x="-8"
     inkscape:window-y="1072"
     inkscape:window-maximized="1"
     inkscape:current-layer="g48510-0" />
  <defs
     id="defs2">
    <linearGradient
       inkscape:collect="always"
       id="linearGradient622">
      <stop
         style="stop-color:#d7e3f4;stop-opacity:1;"
         offset="0"
         id="stop618" />
      <stop
         style="stop-color:#d7e3f4;stop-opacity:0;"
         offset="1"
         id="stop620" />
    </linearGradient>
    <linearGradient
       inkscape:collect="always"
       xlink:href="#linearGradient622"
       id="linearGradient4188"
       gradientUnits="userSpaceOnUse"
       gradientTransform="translate(334.37392,-38.533763)"
       x1="96.320511"
       y1="89.410255"
       x2="97.589745"
       y2="144.83333" />
    <linearGradient
       inkscape:collect="always"
       xlink:href="#linearGradient622"
       id="linearGradient6650"
       gradientUnits="userSpaceOnUse"
       gradientTransform="translate(214.7097,73.152845)"
       x1="96.320511"
       y1="89.410255"
       x2="97.589745"
       y2="144.83333" />
  </defs>
  <g
     inkscape:label="Layer 1"
     inkscape:groupmode="layer"
     id="layer1"
     transform="translate(-287.90449,-153.68101)">
    <g
       id="g5639"
       inkscape:export-filename="Rock_Computer.svg"
       inkscape:export-xdpi="96"
       inkscape:export-ydpi="96">
      <rect
         style="fill:#e6e6e6;fill-rule:evenodd;stroke:#000000;stroke-width:0.277"
         id="rect234-90"
         width="49.358974"
         height="40.897434"
         x="407.70724"
         y="42.1329"
         ry="1.4882886" />
      <rect
         style="fill:url(#linearGradient4188);fill-opacity:1;fill-rule:evenodd;stroke:#000000;stroke-width:0.235255"
         id="rect234-9-8"
         width="41.920406"
         height="34.734051"
         x="411.21204"
         y="45.355618"
         ry="1.2639984" />
      <path
         style="opacity:0.57;fill:#e9c6af;fill-opacity:1;fill-rule:evenodd;stroke:#ffffff;stroke-width:1.29675;stroke-dasharray:none;stroke-opacity:1"
         d="m 433.40007,50.769296 c -0.21584,-0.0925 -0.42474,-0.203249 -0.64751,-0.277506 -0.14915,-0.04972 -0.30834,-0.06166 -0.4625,-0.0925 -0.15418,-0.03083 -0.30903,-0.05838 -0.46251,-0.0925 -0.12411,-0.02755 -0.24365,-0.07846 -0.37,-0.0925 -0.15323,-0.01705 -0.3091,0.01535 -0.46251,0 -0.53532,-0.05352 -0.38213,-0.160365 -0.92501,-0.0925 -0.13929,0.01738 -0.28888,0.0633 -0.37001,0.185002 -0.17821,0.267319 -0.0226,0.176002 -0.185,0.555005 -0.0438,0.102185 -0.14121,0.17532 -0.185,0.277505 -0.0501,0.116852 -0.0523,0.2494 -0.0925,0.370003 -0.0692,0.207684 -0.17196,0.251414 -0.27751,0.462508 -0.27934,0.558684 0.0133,0.03916 -0.0925,0.462507 -0.0167,0.06689 -0.0617,0.123339 -0.0925,0.185002 -0.0308,0.06166 -0.0437,0.136253 -0.0925,0.185001 -0.22467,0.224672 -0.13583,-0.02748 -0.2775,0.185008 -0.0382,0.05739 -0.0437,0.136248 -0.0925,0.185002 -0.0487,0.04874 -0.12333,0.06166 -0.185,0.0925 -0.0617,0.03083 -0.12588,0.05706 -0.185,0.0925 -0.0953,0.0572 -0.18218,0.127805 -0.27751,0.185001 -0.0591,0.03549 -0.12588,0.057 -0.185,0.0925 -0.30475,-0.0026 -0.2811,0.341569 -0.46251,0.462507 -0.10578,0.07052 -0.25383,0.04086 -0.37,0.0925 -0.1643,0.07302 -0.30534,0.19019 -0.46251,0.277499 -0.23788,0.132161 -0.40539,0.145588 -0.555,0.37001 -0.0171,0.02565 0,0.06166 0,0.0925 0,0.03083 0,0.06166 0,0.0925 0,0.03083 0.01,0.06323 0,0.0925 -0.17356,0.520667 -0.0312,-0.291162 -0.18501,0.555005 -0.0487,0.267837 -0.0493,0.653628 -0.185,0.925008 -0.16355,0.327112 -0.21701,0.268604 -0.46251,0.555011 -0.10033,0.117055 -0.1788,0.251571 -0.2775,0.370003 -0.0558,0.067 -0.146,0.107 -0.185,0.185002 -0.0276,0.05516 0.0195,0.1265 0,0.185001 -0.0138,0.04139 -0.0617,0.06166 -0.0925,0.09251 -0.0308,0.03083 -0.0683,0.05621 -0.0925,0.0925 -0.2408,0.361194 0.1047,0.0039 -0.2775,0.4625 -0.0837,0.1005 -0.20494,0.168663 -0.27751,0.277506 -0.0541,0.08113 -0.0541,0.187881 -0.0925,0.277506 -0.0543,0.126743 -0.12333,0.246671 -0.185,0.370003 -0.0308,0.06166 -0.0669,0.120984 -0.0925,0.185002 -0.0308,0.0925 -0.0617,0.185001 -0.0925,0.277505 0,0.0925 0.0254,0.188563 0,0.277499 -0.0379,0.132594 -0.15509,0.235403 -0.185,0.37001 -0.0335,0.150494 0,0.308334 0,0.462501 0,0.123339 0,0.246677 0,0.37001 0,0.154167 0,0.308333 0,0.462507 0,0.123332 -0.0339,0.251413 0,0.370003 0.0305,0.106895 0.14371,0.174284 0.185,0.277506 0.0229,0.05726 0,0.123332 0,0.185001 0,0.03083 -0.0218,0.0707 0,0.0925 0.0218,0.02178 0.0707,-0.02178 0.0925,0 0.0218,0.02178 0,0.06166 0,0.0925 0,0.03083 -0.007,0.06258 0,0.0925 0.0236,0.0946 0.0734,0.181892 0.0925,0.277505 0.0121,0.06048 0,0.123333 0,0.185002 0,0.0925 0,0.185002 0,0.277506 0,0.215836 0,0.431672 0,0.647509 0,0.0925 -0.0181,0.186798 0,0.277505 0.0135,0.06761 0.0617,0.123332 0.0925,0.185002 0.14222,0.284439 0.0543,0.127635 0.2775,0.462507 0.0617,0.0925 0.13529,0.178062 0.185,0.277499 0.0436,0.08721 0.0489,0.190295 0.0925,0.277506 0.0842,0.16844 0.0702,0.05424 0.18501,0.0925 0.30195,0.100651 0.0775,0.120847 0.4625,0.185009 0.0912,0.01522 0.18627,-0.01522 0.27751,0 0.0962,0.016 0.18291,0.06885 0.2775,0.0925 0.0299,0.0075 0.0649,-0.01377 0.0925,0 0.039,0.01948 0.0511,0.07872 0.0925,0.0925 0.14915,0.04972 0.30998,0.05438 0.46251,0.0925 0.0946,0.02368 0.185,0.06166 0.2775,0.0925 0.0925,0.03083 0.18697,0.05628 0.2775,0.0925 0.064,0.02558 0.1196,0.0707 0.18501,0.0925 0.0292,0.0098 0.0707,-0.02178 0.0925,0 0.0487,0.04874 0.0437,0.136248 0.0925,0.185002 0.0956,0.09565 0.54593,0.340985 0.64751,0.370003 0.0889,0.02538 0.18593,-0.01312 0.2775,0 0.13644,0.01948 0.50108,0.126435 0.6475,0.185008 0.064,0.02558 0.11812,0.07578 0.18501,0.0925 0.0598,0.01495 0.12333,0 0.185,0 0.0617,0 0.12334,0 0.18501,0 0.0308,0 0.0707,-0.02178 0.0925,0 0.0218,0.02178 -0.0293,0.08275 0,0.0925 0.0878,0.02925 0.18626,-0.01522 0.2775,0 0.0962,0.016 0.185,0.06166 0.27751,0.0925 0.0925,0.03083 0.18697,0.05628 0.2775,0.0925 0.064,0.02558 0.11675,0.08275 0.185,0.0925 0.15262,0.02178 0.30952,-0.01915 0.4625,0 0.0968,0.01214 0.18133,0.07647 0.27751,0.0925 0.0912,0.01522 0.185,0 0.27751,0 0.0308,0 0.0617,0 0.0925,0 0.0308,0 0.0649,-0.01377 0.0925,0 0.039,0.01948 0.0502,0.08192 0.0925,0.0925 0.0897,0.02243 0.185,0 0.2775,0 0.12333,0 0.24742,-0.01364 0.37,0 0.15626,0.01738 0.30686,0.07027 0.46251,0.0925 0.0611,0.0087 0.12334,0 0.185,0 0.0925,0 0.185,0 0.2775,0 0.37001,0 0.74001,0 1.11002,0 0.69511,0 -0.25577,-0.01817 0.74001,0.0925 0.12258,0.01364 0.24667,0 0.37001,0 0.0925,0 0.18499,0 0.27749,0 0.0617,0 0.12334,0 0.185,0 0.0308,0 0.0649,0.01377 0.0925,0 0.039,-0.01948 0.0562,-0.06831 0.0925,-0.0925 0.0574,-0.03824 0.12985,-0.05116 0.18501,-0.0925 0.0698,-0.05234 0.11244,-0.136621 0.185,-0.185002 0.11474,-0.07649 0.24667,-0.123332 0.37001,-0.185001 0.12333,-0.06166 0.24326,-0.130685 0.37,-0.185002 0.0896,-0.03844 0.19029,-0.04887 0.27751,-0.0925 0.38497,-0.192485 -0.0989,0.0066 0.0925,-0.185008 0.0487,-0.04873 0.12588,-0.057 0.185,-0.0925 0.0953,-0.0572 0.18218,-0.127806 0.2775,-0.185002 0.28001,-0.168007 0.10084,-0.0083 0.27751,-0.185008 0.0308,-0.03083 0.073,-0.05352 0.0925,-0.0925 0.0138,-0.02755 -0.01,-0.06323 0,-0.0925 0.0893,-0.267922 0.13688,-0.125654 0.185,-0.4625 0.0174,-0.122099 0,-0.246671 0,-0.37001 0,-0.154167 0,-0.308334 0,-0.462501 0,-0.185008 0,-0.37001 0,-0.555011 0,-0.0925 0.013,-0.185933 0,-0.277499 -0.12241,-0.856904 -0.0925,0.113401 -0.0925,-0.740013 0,-0.03083 -0.0218,-0.0707 0,-0.0925 0.0218,-0.02178 0.0707,0.02178 0.0925,0 0.0218,-0.02178 -0.0218,-0.07069 0,-0.0925 0.0218,-0.02178 0.0707,0.02178 0.0925,0 0.0487,-0.04874 0.0512,-0.129845 0.0925,-0.185002 0.0523,-0.06977 0.14013,-0.11022 0.185,-0.185008 0.0502,-0.0836 0.0423,-0.193889 0.0925,-0.277499 0.0449,-0.07478 0.12333,-0.123339 0.185,-0.185002 0.0617,-0.06166 0.12334,-0.123338 0.18501,-0.185001 0.0617,-0.06166 0.13267,-0.115238 0.185,-0.185008 0.0414,-0.05516 0.0617,-0.123333 0.0925,-0.185002 0.0308,-0.06166 0.0669,-0.120984 0.0925,-0.185002 0.15538,-0.01948 0.0651,-0.380183 0.0925,-0.462507 0.0138,-0.04139 0.0787,-0.0511 0.0925,-0.0925 0.0195,-0.05851 -0.0121,-0.124533 0,-0.185002 0.0191,-0.09561 0.0765,-0.181328 0.0925,-0.277506 0.0152,-0.09124 0,-0.185001 0,-0.277505 0,-0.0925 0,-0.185002 0,-0.277499 0,-0.154174 -0.0218,-0.309889 0,-0.462508 0.01,-0.06825 0.0669,-0.12099 0.0925,-0.185001 0.0362,-0.09054 0.0765,-0.181329 0.0925,-0.277506 0.0152,-0.09125 -0.0152,-0.186261 0,-0.277506 0.0161,-0.09618 0.0765,-0.181322 0.0925,-0.277499 0.0152,-0.09125 0,-0.185001 0,-0.277506 0,-0.06166 0,-0.123332 0,-0.185001 0,-0.06166 0.0121,-0.124533 0,-0.185002 -0.0192,-0.09561 -0.0765,-0.181328 -0.0925,-0.277505 -0.0152,-0.09125 0,-0.185002 0,-0.277506 0,-0.0925 -0.0131,-0.185933 0,-0.277506 0.1836,-1.285192 -0.005,0.203761 0.185,-0.555005 0.015,-0.05982 0,-0.123332 0,-0.185001 0,-0.06166 0,-0.123333 0,-0.185002 0,-0.0925 -0.0182,-0.186799 0,-0.277506 0.0135,-0.06761 0.0707,-0.119593 0.0925,-0.185001 0.0402,-0.120604 0.0356,-0.256294 0.0925,-0.370003 0.0138,-0.02755 0.0649,0.01377 0.0925,0 0.1143,-0.05713 0.0925,-0.08931 0.0925,-0.185002 0,-0.03083 0.0171,-0.06685 0,-0.0925 -0.0484,-0.07256 -0.13267,-0.115232 -0.185,-0.185002 -0.093,-0.123962 -0.13171,-0.329251 -0.18501,-0.462507 -0.0256,-0.06402 -0.0571,-0.125877 -0.0925,-0.185002 -0.45272,-0.754554 0.0657,0.118413 -0.37,-0.462507 -0.0414,-0.05516 -0.0542,-0.127635 -0.0925,-0.185002 -0.0242,-0.03627 -0.0683,-0.05621 -0.0925,-0.0925 -0.0382,-0.05739 -0.0512,-0.129846 -0.0925,-0.185008 -0.0523,-0.06976 -0.13267,-0.115232 -0.185,-0.185002 -0.21898,-0.291969 0.0695,-0.115487 -0.2775,-0.462501 -0.0487,-0.04873 -0.13625,-0.04375 -0.185,-0.0925 -0.0786,-0.07861 -0.13529,-0.178068 -0.18501,-0.277505 -0.0138,-0.02755 0.0218,-0.0707 0,-0.0925 -0.0487,-0.04874 -0.13625,-0.04375 -0.185,-0.0925 -0.0487,-0.04874 -0.0438,-0.136247 -0.0925,-0.185002 -0.0218,-0.02178 -0.0707,0.02178 -0.0925,0 -0.0218,-0.02178 0.0138,-0.06493 0,-0.0925 -0.0195,-0.03903 -0.0683,-0.05621 -0.0925,-0.0925 -0.0382,-0.05739 -0.0495,-0.131164 -0.0925,-0.185002 -0.0817,-0.102152 -0.185,-0.185008 -0.27751,-0.277506 -0.0308,-0.03083 -0.073,-0.05352 -0.0925,-0.0925 -0.0436,-0.0872 -0.0563,-0.186969 -0.0925,-0.277499 -0.16767,-0.419184 -0.008,-0.01279 -0.185,-0.277505 -0.0382,-0.05739 -0.0542,-0.127635 -0.0925,-0.185002 0.009,-0.18325 -0.13624,-0.04375 -0.185,-0.0925 -0.0218,-0.02178 0.0257,-0.0754 0,-0.0925 -0.55965,-0.373105 -0.0371,0.134103 -0.46251,-0.185001 -0.0698,-0.05234 -0.12333,-0.123339 -0.185,-0.185002 -0.0925,-0.06166 -0.185,-0.123339 -0.2775,-0.185008 -0.0925,-0.06166 -0.185,-0.123332 -0.2775,-0.185002 -0.0617,-0.06166 -0.11524,-0.132672 -0.18501,-0.185001 -0.0552,-0.04139 -0.12763,-0.05425 -0.185,-0.0925 -0.0363,-0.0242 -0.0535,-0.073 -0.0925,-0.0925 -0.0275,-0.01377 -0.0617,0 -0.0925,0 -0.0308,0 -0.0617,0 -0.0925,0 -0.0308,0 -0.0649,-0.01377 -0.0925,0 -0.38497,0.192486 0.0989,-0.0066 -0.0925,0.185002 -0.0218,0.02178 -0.0617,0 -0.0925,0 -0.0308,0 -0.0632,-0.0098 -0.0925,0 -0.0654,0.02178 -0.11959,0.0707 -0.185,0.0925 -0.17087,0.05693 -0.0439,-0.141147 -0.2775,0.0925 -0.0218,0.02178 0.0218,0.0707 0,0.0925 -0.0218,0.02178 -0.0649,-0.01377 -0.0925,0 -0.039,0.01948 -0.0535,0.073 -0.0925,0.0925 -0.0276,0.01377 -0.0707,-0.02178 -0.0925,0 -0.0218,0.02178 0.0138,0.06494 0,0.0925 -0.0195,0.03903 -0.073,0.05352 -0.0925,0.0925 -0.0138,0.02755 0.0138,0.06494 0,0.0925 -0.0195,0.03903 -0.059,0.06461 -0.0925,0.0925 -0.15167,0.126389 -0.30834,0.246664 -0.46251,0.370003 z"
         id="path1558-6-3" />
      <rect
         style="opacity:0.69;fill:#e6e6e6;fill-opacity:1;fill-rule:evenodd;stroke:#000000;stroke-width:0.277"
         id="rect368-06"
         width="49.162048"
         height="8.1770487"
         x="407.75034"
         y="83.042252"
         ry="1.4882886" />
      <rect
         style="fill:#e6e6e6;fill-opacity:1;fill-rule:evenodd;stroke:#000000;stroke-width:0.277"
         id="rect1092-6"
         width="12.465023"
         height="1.595523"
         x="411.85651"
         y="86.71479"
         ry="0.7977615" />
      <ellipse
         style="fill:#e6e6e6;fill-opacity:1;fill-rule:evenodd;stroke:#000000;stroke-width:0.277"
         id="path1146-8"
         cx="427.36301"
         cy="87.362968"
         rx="1.2465023"
         ry="1.1467822" />
      <rect
         style="fill:#e6e6e6;fill-opacity:1;fill-rule:evenodd;stroke:#000000;stroke-width:0.188548"
         id="rect1148-0"
         width="39.060051"
         height="7.0659666"
         x="360.17722"
         y="105.47416"
         ry="0.44162291"
         transform="matrix(1,0,0.46005252,0.88789171,0,0)" />
      <path
         style="fill:#e6e6e6;fill-opacity:1;fill-rule:evenodd;stroke:#000000;stroke-width:0.277"
         d="m 410.45016,95.022528 30.03847,-0.0705"
         id="path1213-87" />
      <path
         style="fill:#e6e6e6;fill-opacity:1;fill-rule:evenodd;stroke:#000000;stroke-width:0.277"
         d="m 411.1553,96.115468 30.03846,-0.0705"
         id="path1213-2-5" />
      <path
         style="fill:#e6e6e6;fill-opacity:1;fill-rule:evenodd;stroke:#000000;stroke-width:0.277"
         d="m 412.03671,97.173158 30.03846,-0.0705"
         id="path1213-8-7" />
      <path
         style="fill:#e6e6e6;fill-opacity:1;fill-rule:evenodd;stroke:#000000;stroke-width:0.277"
         d="m 412.74183,98.160338 30.03846,-0.0705"
         id="path1213-0-02" />
      <path
         style="fill:#e6e6e6;fill-opacity:1;fill-rule:evenodd;stroke:#000000;stroke-width:0.277"
         d="m 413.23542,94.952008 1.83334,3.17308"
         id="path1263-8" />
      <path
         style="fill:#e6e6e6;fill-opacity:1;fill-rule:evenodd;stroke:#000000;stroke-width:0.277"
         d="m 414.99824,94.952008 1.83334,3.17308"
         id="path1263-5-7" />
      <path
         style="fill:#e6e6e6;fill-opacity:1;fill-rule:evenodd;stroke:#000000;stroke-width:0.277"
         d="m 416.69055,94.916758 1.83333,3.17308"
         id="path1263-3-3" />
      <path
         style="fill:#e6e6e6;fill-opacity:1;fill-rule:evenodd;stroke:#000000;stroke-width:0.277"
         d="m 418.55914,94.952018 1.83333,3.17308"
         id="path1263-4-8" />
      <path
         style="fill:#e6e6e6;fill-opacity:1;fill-rule:evenodd;stroke:#000000;stroke-width:0.277"
         d="m 420.39247,95.093038 1.83333,3.17308"
         id="path1263-1-1" />
      <path
         style="fill:#e6e6e6;fill-opacity:1;fill-rule:evenodd;stroke:#000000;stroke-width:0.277"
         d="m 421.87324,94.916758 1.83334,3.17308"
         id="path1263-52-2" />
      <path
         style="fill:#e6e6e6;fill-opacity:1;fill-rule:evenodd;stroke:#000000;stroke-width:0.277"
         d="m 423.42452,94.916758 1.83334,3.17308"
         id="path1263-6-0" />
      <path
         style="fill:#e6e6e6;fill-opacity:1;fill-rule:evenodd;stroke:#000000;stroke-width:0.277"
         d="m 424.97581,95.022528 1.83333,3.17308"
         id="path1263-48-8" />
      <path
         style="fill:#e6e6e6;fill-opacity:1;fill-rule:evenodd;stroke:#000000;stroke-width:0.277"
         d="m 426.52709,94.916758 1.83333,3.17308"
         id="path1263-524-8" />
      <path
         style="fill:#e6e6e6;fill-opacity:1;fill-rule:evenodd;stroke:#000000;stroke-width:0.277"
         d="m 427.9726,94.881498 1.83333,3.17308"
         id="path1263-7-8" />
      <path
         style="fill:#e6e6e6;fill-opacity:1;fill-rule:evenodd;stroke:#000000;stroke-width:0.277"
         d="m 429.52388,94.916758 1.83333,3.17308"
         id="path1263-70-91" />
      <path
         style="fill:#e6e6e6;fill-opacity:1;fill-rule:evenodd;stroke:#000000;stroke-width:0.277"
         d="m 431.00465,94.916758 1.83333,3.17308"
         id="path1263-66-4" />
      <path
         style="fill:#e6e6e6;fill-opacity:1;fill-rule:evenodd;stroke:#000000;stroke-width:0.277"
         d="m 432.62644,94.916758 1.83334,3.17308"
         id="path1263-9-1" />
      <path
         style="fill:#e6e6e6;fill-opacity:1;fill-rule:evenodd;stroke:#000000;stroke-width:0.277"
         d="m 434.17773,94.952008 1.83333,3.17308"
         id="path1263-77-0" />
      <path
         style="fill:#e6e6e6;fill-opacity:1;fill-rule:evenodd;stroke:#000000;stroke-width:0.277"
         d="m 435.83478,94.987278 1.83334,3.17308"
         id="path1263-2-5" />
      <path
         style="fill:#e6e6e6;fill-opacity:1;fill-rule:evenodd;stroke:#000000;stroke-width:0.277"
         d="m 437.31555,94.916758 1.83334,3.17308"
         id="path1263-38-4" />
      <path
         style="fill:#e6e6e6;fill-opacity:1;fill-rule:evenodd;stroke:#000000;stroke-width:0.277"
         d="m 438.72581,94.881498 1.83333,3.17308"
         id="path1263-0-5" />
      <path
         style="fill:#e6e6e6;fill-opacity:1;fill-rule:evenodd;stroke:#000000;stroke-width:0.277"
         d="m 440.31235,94.846238 1.83333,3.17308"
         id="path1263-11-5" />
      <path
         style="fill:#e6e6e6;fill-opacity:1;fill-rule:evenodd;stroke:#000000;stroke-width:0.277"
         d="m 411.78991,94.916758 1.83333,3.17308"
         id="path1263-67-38" />
      <path
         style="fill:#e6e6e6;fill-opacity:1;fill-rule:evenodd;stroke:#000000;stroke-width:0.277"
         d="m 410.9085,95.057788 1.83333,3.17308"
         id="path1263-35-2" />
      <text
         xml:space="preserve"
         style="font-size:7.92466px;opacity:0.57;fill:#000000;fill-rule:evenodd;stroke:#929292;stroke-width:0.399;stroke-dasharray:none"
         x="422.25647"
         y="76.866898"
         id="text443-5"><tspan
           sodipodi:role="line"
           id="tspan441-3"
           style="fill:#000000;stroke-width:0.399;stroke-dasharray:none"
           x="422.25647"
           y="76.866898">Rock</tspan></text>
      <rect
         style="opacity:0.57;fill:#000000;fill-opacity:1;fill-rule:evenodd;stroke:none;stroke-width:0.399;stroke-dasharray:none"
         id="rect1796-4"
         width="18.721153"
         height="0.77564102"
         x="422.83224"
         y="77.177773"
         ry="0.38782051" />
      <rect
         style="opacity:0.57;fill:#000000;fill-opacity:1;fill-rule:evenodd;stroke:none;stroke-width:0.399;stroke-dasharray:none"
         id="rect1796-3-53"
         width="18.721153"
         height="0.77564102"
         x="422.60309"
         y="70.178864"
         ry="0.38782051" />
      <g
         id="g6717"
         inkscape:export-filename="Empty_Computer.svg"
         inkscape:export-xdpi="96"
         inkscape:export-ydpi="96">
        <rect
           style="fill:#e6e6e6;fill-rule:evenodd;stroke:#000000;stroke-width:0.277"
           id="rect234-90-6"
           width="49.358974"
           height="40.897434"
           x="288.043"
           y="153.8195"
           ry="1.4882886" />
        <rect
           style="fill:url(#linearGradient6650);fill-opacity:1;fill-rule:evenodd;stroke:#000000;stroke-width:0.235255"
           id="rect234-9-8-1"
           width="41.920406"
           height="34.734051"
           x="291.54779"
           y="157.04222"
           ry="1.2639984" />
        <rect
           style="opacity:0.69;fill:#e6e6e6;fill-opacity:1;fill-rule:evenodd;stroke:#000000;stroke-width:0.277"
           id="rect368-06-4"
           width="49.162048"
           height="8.1770487"
           x="288.08609"
           y="194.72885"
           ry="1.4882886" />
        <rect
           style="fill:#e6e6e6;fill-opacity:1;fill-rule:evenodd;stroke:#000000;stroke-width:0.277"
           id="rect1092-6-6"
           width="12.465023"
           height="1.595523"
           x="292.19226"
           y="198.4014"
           ry="0.7977615" />
        <ellipse
           style="fill:#e6e6e6;fill-opacity:1;fill-rule:evenodd;stroke:#000000;stroke-width:0.277"
           id="path1146-8-0"
           cx="307.69876"
           cy="199.04958"
           rx="1.2465023"
           ry="1.1467822" />
        <rect
           style="fill:#e6e6e6;fill-opacity:1;fill-rule:evenodd;stroke:#000000;stroke-width:0.188548"
           id="rect1148-0-2"
           width="39.060051"
           height="7.0659666"
           x="182.64366"
           y="231.26271"
           ry="0.44162291"
           transform="matrix(1,0,0.46005252,0.88789171,0,0)" />
        <path
           style="fill:#e6e6e6;fill-opacity:1;fill-rule:evenodd;stroke:#000000;stroke-width:0.277"
           d="m 290.78594,206.70913 30.03847,-0.0705"
           id="path1213-87-3" />
        <path
           style="fill:#e6e6e6;fill-opacity:1;fill-rule:evenodd;stroke:#000000;stroke-width:0.277"
           d="m 291.49108,207.80207 30.03846,-0.0705"
           id="path1213-2-5-4" />
        <path
           style="fill:#e6e6e6;fill-opacity:1;fill-rule:evenodd;stroke:#000000;stroke-width:0.277"
           d="m 292.37249,208.85976 30.03846,-0.0705"
           id="path1213-8-7-7" />
        <path
           style="fill:#e6e6e6;fill-opacity:1;fill-rule:evenodd;stroke:#000000;stroke-width:0.277"
           d="m 293.07761,209.84694 30.03846,-0.0705"
           id="path1213-0-02-3" />
        <path
           style="fill:#e6e6e6;fill-opacity:1;fill-rule:evenodd;stroke:#000000;stroke-width:0.277"
           d="m 293.5712,206.63861 1.83334,3.17308"
           id="path1263-8-3" />
        <path
           style="fill:#e6e6e6;fill-opacity:1;fill-rule:evenodd;stroke:#000000;stroke-width:0.277"
           d="m 295.33402,206.63861 1.83334,3.17308"
           id="path1263-5-7-7" />
        <path
           style="fill:#e6e6e6;fill-opacity:1;fill-rule:evenodd;stroke:#000000;stroke-width:0.277"
           d="m 297.02633,206.60336 1.83333,3.17308"
           id="path1263-3-3-4" />
        <path
           style="fill:#e6e6e6;fill-opacity:1;fill-rule:evenodd;stroke:#000000;stroke-width:0.277"
           d="m 298.89492,206.63862 1.83333,3.17308"
           id="path1263-4-8-4" />
        <path
           style="fill:#e6e6e6;fill-opacity:1;fill-rule:evenodd;stroke:#000000;stroke-width:0.277"
           d="m 300.72825,206.77964 1.83333,3.17308"
           id="path1263-1-1-3" />
        <path
           style="fill:#e6e6e6;fill-opacity:1;fill-rule:evenodd;stroke:#000000;stroke-width:0.277"
           d="m 302.20902,206.60336 1.83334,3.17308"
           id="path1263-52-2-2" />
        <path
           style="fill:#e6e6e6;fill-opacity:1;fill-rule:evenodd;stroke:#000000;stroke-width:0.277"
           d="m 303.7603,206.60336 1.83334,3.17308"
           id="path1263-6-0-2" />
        <path
           style="fill:#e6e6e6;fill-opacity:1;fill-rule:evenodd;stroke:#000000;stroke-width:0.277"
           d="m 305.31159,206.70913 1.83333,3.17308"
           id="path1263-48-8-1" />
        <path
           style="fill:#e6e6e6;fill-opacity:1;fill-rule:evenodd;stroke:#000000;stroke-width:0.277"
           d="m 306.86287,206.60336 1.83333,3.17308"
           id="path1263-524-8-7" />
        <path
           style="fill:#e6e6e6;fill-opacity:1;fill-rule:evenodd;stroke:#000000;stroke-width:0.277"
           d="m 308.30838,206.5681 1.83333,3.17308"
           id="path1263-7-8-1" />
        <path
           style="fill:#e6e6e6;fill-opacity:1;fill-rule:evenodd;stroke:#000000;stroke-width:0.277"
           d="m 309.85966,206.60336 1.83333,3.17308"
           id="path1263-70-91-6" />
        <path
           style="fill:#e6e6e6;fill-opacity:1;fill-rule:evenodd;stroke:#000000;stroke-width:0.277"
           d="m 311.34043,206.60336 1.83333,3.17308"
           id="path1263-66-4-9" />
        <path
           style="fill:#e6e6e6;fill-opacity:1;fill-rule:evenodd;stroke:#000000;stroke-width:0.277"
           d="m 312.96222,206.60336 1.83334,3.17308"
           id="path1263-9-1-7" />
        <path
           style="fill:#e6e6e6;fill-opacity:1;fill-rule:evenodd;stroke:#000000;stroke-width:0.277"
           d="m 314.51351,206.63861 1.83333,3.17308"
           id="path1263-77-0-9" />
        <path
           style="fill:#e6e6e6;fill-opacity:1;fill-rule:evenodd;stroke:#000000;stroke-width:0.277"
           d="m 316.17056,206.67388 1.83334,3.17308"
           id="path1263-2-5-6" />
        <path
           style="fill:#e6e6e6;fill-opacity:1;fill-rule:evenodd;stroke:#000000;stroke-width:0.277"
           d="m 317.65133,206.60336 1.83334,3.17308"
           id="path1263-38-4-0" />
        <path
           style="fill:#e6e6e6;fill-opacity:1;fill-rule:evenodd;stroke:#000000;stroke-width:0.277"
           d="m 319.06159,206.5681 1.83333,3.17308"
           id="path1263-0-5-2" />
        <path
           style="fill:#e6e6e6;fill-opacity:1;fill-rule:evenodd;stroke:#000000;stroke-width:0.277"
           d="m 320.64813,206.53284 1.83333,3.17308"
           id="path1263-11-5-8" />
        <path
           style="fill:#e6e6e6;fill-opacity:1;fill-rule:evenodd;stroke:#000000;stroke-width:0.277"
           d="m 292.12569,206.60336 1.83333,3.17308"
           id="path1263-67-38-9" />
        <path
           style="fill:#e6e6e6;fill-opacity:1;fill-rule:evenodd;stroke:#000000;stroke-width:0.277"
           d="m 291.24428,206.74439 1.83333,3.17308"
           id="path1263-35-2-4" />
      </g>
    </g>
  </g>
</svg>
