<?xml version="1.0" encoding="UTF-8" standalone="no"?>
<!-- Created with Inkscape (http://www.inkscape.org/) -->

<svg
   width="46.042336mm"
   height="61.837212mm"
   viewBox="0 0 46.042336 61.837212"
   version="1.1"
   id="svg5"
   inkscape:version="1.2.1 (9c6d41e410, 2022-07-14)"
   sodipodi:docname="RPS Icons.svg"
   xmlns:inkscape="http://www.inkscape.org/namespaces/inkscape"
   xmlns:sodipodi="http://sodipodi.sourceforge.net/DTD/sodipodi-0.dtd"
   xmlns="http://www.w3.org/2000/svg"
   xmlns:svg="http://www.w3.org/2000/svg">
  <sodipodi:namedview
     id="namedview7"
     pagecolor="#ffffff"
     bordercolor="#000000"
     borderopacity="0.25"
     inkscape:showpageshadow="2"
     inkscape:pageopacity="0.0"
     inkscape:pagecheckerboard="0"
     inkscape:deskcolor="#d1d1d1"
     inkscape:document-units="mm"
     showgrid="false"
     inkscape:zoom="0.93806818"
     inkscape:cx="393.3616"
     inkscape:cy="528.74621"
     inkscape:window-width="2560"
     inkscape:window-height="1377"
     inkscape:window-x="-8"
     inkscape:window-y="1072"
     inkscape:window-maximized="1"
     inkscape:current-layer="g48510-0" />
  <defs
     id="defs2" />
  <g
     inkscape:label="Layer 1"
     inkscape:groupmode="layer"
     id="layer1"
     transform="translate(104.21794,-123.82051)">
    <g
       id="g48510"
       transform="translate(-132.28205,-3.948718)"
       inkscape:export-filename="Rock_Card.svg"
       inkscape:export-xdpi="96"
       inkscape:export-ydpi="96">
      <rect
         style="fill:#e6e6e6;fill-opacity:1;fill-rule:evenodd;stroke:#000000;stroke-width:0.277"
         id="rect1521-9"
         width="43.294868"
         height="59.653843"
         x="30.673075"
         y="129.8141"
         ry="0.7977615" />
      <rect
         style="opacity:1;fill:#ffffff;fill-opacity:1;fill-rule:evenodd;stroke:#000000;stroke-width:0;stroke-dasharray:none;stroke-opacity:1"
         id="rect1521"
         width="43.294868"
         height="59.653843"
         x="28.064104"
         y="127.76923"
         ry="0.7977615" />
      <rect
         style="fill:#424242;fill-opacity:1;fill-rule:evenodd;stroke:#c7f0ff;stroke-width:0;stroke-dasharray:none;stroke-opacity:1"
         id="rect1521-4"
         width="40.715508"
         height="57.460049"
         x="29.302898"
         y="128.82123"
         ry="0.7684235" />
      <path
         style="opacity:1;fill:#e9c6af;fill-opacity:1;fill-rule:evenodd;stroke:#ffffff;stroke-width:1.977;stroke-dasharray:none;stroke-opacity:1"
         d="m 51.063379,143.70719 c -0.329059,-0.14103 -0.647543,-0.30987 -0.987178,-0.42308 -0.227397,-0.0758 -0.470086,-0.094 -0.705128,-0.14102 -0.235043,-0.047 -0.471138,-0.089 -0.705128,-0.14103 -0.189206,-0.042 -0.371467,-0.11962 -0.564102,-0.14102 -0.233606,-0.026 -0.471252,0.0234 -0.705131,0 -0.816131,-0.0816 -0.582583,-0.24449 -1.410255,-0.14103 -0.212347,0.0265 -0.44041,0.0965 -0.564103,0.28205 -0.271698,0.40755 -0.03441,0.26833 -0.282051,0.84615 -0.06676,0.15579 -0.215286,0.26729 -0.282051,0.42308 -0.07635,0.17815 -0.07973,0.38023 -0.141025,0.5641 -0.10554,0.31663 -0.26216,0.3833 -0.423077,0.70513 -0.425881,0.85176 0.02032,0.0597 -0.141026,0.70513 -0.02551,0.10198 -0.09402,0.18804 -0.141025,0.28205 -0.04701,0.094 -0.0667,0.20773 -0.141026,0.28205 -0.342524,0.34253 -0.207086,-0.0419 -0.423076,0.28206 -0.05831,0.0875 -0.0667,0.20772 -0.141026,0.28205 -0.07433,0.0743 -0.188034,0.094 -0.282051,0.14102 -0.09402,0.047 -0.191918,0.087 -0.282054,0.14103 -0.145336,0.0872 -0.277738,0.19485 -0.423077,0.28205 -0.09013,0.0541 -0.191915,0.0869 -0.282051,0.14102 -0.464608,-0.004 -0.428553,0.52075 -0.705127,0.70513 -0.161269,0.10752 -0.386985,0.0623 -0.564103,0.14103 -0.250481,0.11132 -0.465518,0.28996 -0.705128,0.42307 -0.362672,0.20149 -0.618058,0.22196 -0.846153,0.56411 -0.02609,0.0391 0,0.094 0,0.14102 0,0.047 0,0.094 0,0.14103 0,0.047 0.01487,0.0964 0,0.14103 -0.264604,0.7938 -0.0475,-0.4439 -0.282051,0.84615 -0.07425,0.40834 -0.07518,0.99651 -0.282051,1.41025 -0.249354,0.49871 -0.330859,0.40951 -0.705131,0.84616 -0.152963,0.17846 -0.272605,0.38354 -0.423076,0.5641 -0.08512,0.10215 -0.222589,0.16313 -0.282051,0.28205 -0.04205,0.0841 0.02973,0.19286 0,0.28205 -0.02103,0.0631 -0.09402,0.094 -0.141026,0.14103 -0.04701,0.047 -0.104148,0.0857 -0.141026,0.14103 -0.367117,0.55067 0.159624,0.006 -0.423076,0.70512 -0.127678,0.15322 -0.312447,0.25714 -0.423077,0.42308 -0.08246,0.12369 -0.08247,0.28644 -0.141025,0.42308 -0.08281,0.19323 -0.188035,0.37607 -0.282052,0.5641 -0.04701,0.094 -0.101986,0.18445 -0.141025,0.28205 -0.04701,0.14103 -0.09402,0.28205 -0.141026,0.42308 0,0.14102 0.03874,0.28748 0,0.42307 -0.05775,0.20215 -0.236447,0.35889 -0.282051,0.56411 -0.05099,0.22944 0,0.47008 0,0.70512 0,0.18804 0,0.37608 0,0.56411 0,0.23504 0,0.47008 0,0.70513 0,0.18803 -0.05166,0.3833 0,0.5641 0.04656,0.16297 0.219104,0.26571 0.282051,0.42308 0.03492,0.0873 0,0.18803 0,0.28205 0,0.047 -0.03324,0.10778 0,0.14102 0.03324,0.0332 0.107786,-0.0332 0.141026,0 0.03324,0.0332 0,0.094 0,0.14103 0,0.047 -0.0114,0.0954 0,0.14102 0.03605,0.14422 0.111871,0.27731 0.141025,0.42308 0.01844,0.0922 0,0.18803 0,0.28205 0,0.14103 0,0.28205 0,0.42308 0,0.32906 0,0.65812 0,0.98718 0,0.14103 -0.02766,0.28479 0,0.42308 0.02061,0.10307 0.09402,0.18803 0.141026,0.28205 0.216823,0.43365 0.08272,0.19459 0.423077,0.70513 0.09402,0.14102 0.206253,0.27147 0.282051,0.42307 0.06648,0.13296 0.07455,0.29012 0.141025,0.42308 0.128397,0.2568 0.106979,0.0827 0.282051,0.14102 0.460352,0.15345 0.118214,0.18424 0.705128,0.28206 0.139108,0.0232 0.283972,-0.0232 0.423077,0 0.146632,0.0244 0.278863,0.10497 0.423079,0.14102 0.0456,0.0114 0.09898,-0.021 0.141026,0 0.05946,0.0297 0.07796,0.12001 0.141025,0.14103 0.227397,0.0758 0.472586,0.0829 0.705128,0.14102 0.144214,0.0361 0.282051,0.094 0.423077,0.14103 0.141025,0.047 0.285054,0.0858 0.423077,0.14102 0.0976,0.039 0.182329,0.10779 0.282051,0.14103 0.0446,0.0149 0.107786,-0.0332 0.141025,0 0.07433,0.0743 0.0667,0.20772 0.141026,0.28205 0.145828,0.14583 0.832326,0.51986 0.987179,0.5641 0.135599,0.0387 0.283469,-0.02 0.423076,0 0.208019,0.0297 0.763942,0.19276 0.987182,0.28206 0.09759,0.039 0.180075,0.11553 0.282051,0.14102 0.09121,0.0228 0.188034,0 0.282051,0 0.09402,0 0.188034,0 0.282051,0 0.04701,0 0.107786,-0.0332 0.141026,0 0.03324,0.0332 -0.0446,0.12616 0,0.14103 0.133789,0.0446 0.283969,-0.0232 0.423077,0 0.146632,0.0244 0.282051,0.094 0.423076,0.14102 0.141026,0.047 0.285054,0.0858 0.423077,0.14103 0.0976,0.039 0.177993,0.12616 0.282051,0.14102 0.23268,0.0332 0.4719,-0.0292 0.705128,0 0.147508,0.0185 0.276447,0.11659 0.423077,0.14103 0.139107,0.0232 0.282051,0 0.423076,0 0.04701,0 0.09402,0 0.141026,0 0.04701,0 0.09898,-0.021 0.141025,0 0.05946,0.0297 0.07653,0.1249 0.141029,0.14102 0.136813,0.0342 0.282051,0 0.423076,0 0.188034,0 0.377217,-0.0208 0.564103,0 0.23823,0.0265 0.467838,0.10713 0.705127,0.14103 0.09307,0.0133 0.188034,0 0.282051,0 0.141026,0 0.282052,0 0.423077,0 0.564102,0 1.128205,0 1.692307,0 1.059754,0 -0.38994,-0.0277 1.128207,0.14103 0.186883,0.0208 0.376068,0 0.564102,0 0.141026,0 0.282051,0 0.423077,0 0.09402,0 0.188034,0 0.282051,0 0.04701,0 0.09898,0.021 0.141026,0 0.05946,-0.0297 0.08571,-0.10415 0.141025,-0.14103 0.08746,-0.0583 0.197959,-0.078 0.282051,-0.14103 0.106368,-0.0798 0.171421,-0.20829 0.282051,-0.28205 0.174922,-0.11661 0.376069,-0.18803 0.564103,-0.28205 0.188034,-0.094 0.370871,-0.19924 0.564102,-0.28205 0.136636,-0.0586 0.290118,-0.0745 0.423077,-0.14102 0.586917,-0.29346 -0.15076,0.01 0.141025,-0.28206 0.07433,-0.0743 0.191918,-0.0869 0.282051,-0.14102 0.145339,-0.0872 0.277741,-0.19485 0.42308,-0.28205 0.426889,-0.25614 0.153725,-0.0127 0.423076,-0.28206 0.04701,-0.047 0.111295,-0.0816 0.141026,-0.14102 0.02101,-0.042 -0.01487,-0.0964 0,-0.14103 0.136157,-0.40847 0.208685,-0.19157 0.282051,-0.70512 0.02659,-0.18615 0,-0.37607 0,-0.56411 0,-0.23504 0,-0.47008 0,-0.70512 0,-0.28206 0,-0.56411 0,-0.84616 0,-0.14102 0.01995,-0.28347 0,-0.42307 -0.186632,-1.30642 -0.141026,0.17289 -0.141026,-1.12821 0,-0.047 -0.03324,-0.10779 0,-0.14103 0.03324,-0.0332 0.107786,0.0332 0.141026,0 0.03324,-0.0332 -0.03324,-0.10778 0,-0.14102 0.03324,-0.0332 0.107786,0.0332 0.141026,0 0.07433,-0.0743 0.07796,-0.19796 0.141025,-0.28205 0.07977,-0.10637 0.213643,-0.16804 0.282051,-0.28206 0.07648,-0.12746 0.06454,-0.2956 0.141026,-0.42307 0.06841,-0.11401 0.188034,-0.18804 0.282051,-0.28205 0.09402,-0.094 0.188034,-0.18804 0.282051,-0.28205 0.09402,-0.094 0.202274,-0.17569 0.282051,-0.28206 0.06307,-0.0841 0.09402,-0.18803 0.141026,-0.28205 0.04701,-0.094 0.101986,-0.18445 0.141025,-0.28205 0.236903,-0.0297 0.09919,-0.57962 0.141026,-0.70513 0.02103,-0.0631 0.120004,-0.0779 0.141025,-0.14102 0.02973,-0.0892 -0.01844,-0.18986 0,-0.28205 0.02915,-0.14577 0.116589,-0.27645 0.141026,-0.42308 0.02318,-0.13911 0,-0.28205 0,-0.42308 0,-0.14102 0,-0.28205 0,-0.42307 0,-0.23505 -0.03324,-0.47245 0,-0.70513 0.01487,-0.10406 0.101989,-0.18446 0.141025,-0.28205 0.05521,-0.13803 0.116589,-0.27645 0.141026,-0.42308 0.02318,-0.13911 -0.02318,-0.28397 0,-0.42308 0.02445,-0.14663 0.116589,-0.27644 0.141026,-0.42307 0.02318,-0.13911 0,-0.28205 0,-0.42308 0,-0.094 0,-0.18803 0,-0.28205 0,-0.094 0.01844,-0.18986 0,-0.28205 -0.02915,-0.14577 -0.116586,-0.27645 -0.141026,-0.42308 -0.02318,-0.13911 0,-0.28205 0,-0.42308 0,-0.14102 -0.01995,-0.28347 0,-0.42308 0.279913,-1.95938 -0.0071,0.31065 0.282051,-0.84615 0.02281,-0.0912 0,-0.18803 0,-0.28205 0,-0.094 0,-0.18803 0,-0.28205 0,-0.14103 -0.02766,-0.28479 0,-0.42308 0.02061,-0.10307 0.107786,-0.18233 0.141026,-0.28205 0.06129,-0.18387 0.05435,-0.39074 0.141025,-0.5641 0.02103,-0.042 0.09898,0.021 0.141026,0 0.174268,-0.0871 0.141025,-0.13616 0.141025,-0.28205 0,-0.047 0.02609,-0.10191 0,-0.14103 -0.07375,-0.11063 -0.202274,-0.17568 -0.282051,-0.28205 -0.14174,-0.18899 -0.200789,-0.50197 -0.282051,-0.70513 -0.03904,-0.0976 -0.08695,-0.19191 -0.141025,-0.28205 -0.690227,-1.15038 0.100139,0.18053 -0.564103,-0.70513 -0.06307,-0.0841 -0.08272,-0.19459 -0.141025,-0.28205 -0.03688,-0.0553 -0.104148,-0.0857 -0.141026,-0.14102 -0.05831,-0.0875 -0.07796,-0.19796 -0.141025,-0.28206 -0.07978,-0.10636 -0.202274,-0.17568 -0.282051,-0.28205 -0.333852,-0.44513 0.105981,-0.17607 -0.423077,-0.70512 -0.07433,-0.0743 -0.207725,-0.0667 -0.282051,-0.14103 -0.119849,-0.11985 -0.206254,-0.27148 -0.282051,-0.42308 -0.02103,-0.042 0.03324,-0.10778 0,-0.14102 -0.07433,-0.0743 -0.207725,-0.0667 -0.282051,-0.14103 -0.07433,-0.0743 -0.0667,-0.20772 -0.141026,-0.28205 -0.03324,-0.0332 -0.107786,0.0332 -0.141026,0 -0.03324,-0.0332 0.02103,-0.099 0,-0.14102 -0.02973,-0.0595 -0.10415,-0.0857 -0.141025,-0.14103 -0.05831,-0.0875 -0.07536,-0.19997 -0.141026,-0.28205 -0.124589,-0.15574 -0.282051,-0.28206 -0.423076,-0.42308 -0.04701,-0.047 -0.111297,-0.0816 -0.141026,-0.14103 -0.06648,-0.13295 -0.08582,-0.28505 -0.141026,-0.42307 -0.255629,-0.63908 -0.01302,-0.0195 -0.282053,-0.42308 -0.05831,-0.0875 -0.08272,-0.19459 -0.141026,-0.28205 0.01408,-0.27938 -0.207724,-0.0667 -0.282051,-0.14103 -0.03324,-0.0332 0.03911,-0.11495 0,-0.14102 -0.853239,-0.56883 -0.05646,0.20445 -0.705128,-0.28205 -0.106368,-0.0798 -0.188034,-0.18804 -0.282051,-0.28205 -0.141025,-0.094 -0.282051,-0.18804 -0.423077,-0.28206 -0.141025,-0.094 -0.282051,-0.18803 -0.423076,-0.28205 -0.09402,-0.094 -0.175684,-0.20227 -0.282051,-0.28205 -0.08409,-0.0631 -0.194591,-0.0827 -0.282052,-0.14102 -0.05532,-0.0369 -0.08156,-0.1113 -0.141025,-0.14103 -0.04205,-0.021 -0.09402,0 -0.141026,0 -0.04701,0 -0.09402,0 -0.141025,0 -0.04701,0 -0.09898,-0.021 -0.141026,0 -0.586914,0.29346 0.15076,-0.01 -0.141025,0.28205 -0.03324,0.0332 -0.09402,0 -0.141026,0 -0.04701,0 -0.09643,-0.0149 -0.141025,0 -0.09972,0.0332 -0.182333,0.10779 -0.282052,0.14103 -0.260506,0.0868 -0.06686,-0.21519 -0.423079,0.14102 -0.03324,0.0332 0.03324,0.10779 0,0.14103 -0.03324,0.0332 -0.09898,-0.021 -0.141025,0 -0.05946,0.0297 -0.08156,0.11129 -0.141026,0.14102 -0.04205,0.021 -0.107783,-0.0332 -0.141026,0 -0.03324,0.0332 0.02103,0.099 0,0.14103 -0.02973,0.0595 -0.111294,0.0816 -0.141025,0.14103 -0.02103,0.042 0.02103,0.099 0,0.14102 -0.02973,0.0595 -0.08995,0.0985 -0.141026,0.14103 -0.231235,0.19269 -0.470085,0.37606 -0.705128,0.5641 z"
         id="path1558" />
    </g>
  </g>
</svg>
